<svg xmlns="http://www.w3.org/2000/svg"
 xmlns:xlink="http://www.w3.org/1999/xlink"
 width="60px" height="52px"  viewBox="0 0 60 52">
<path fill-rule="evenodd"  fill="#5eb6c4"
 d="M29.175232,1.0126953 C27.172913,1.0126953 25.531525,2.3725586 25.16034,4.231018 C25.16034,4.231018 25.055664,4.231018 25.055664,4.231018 C25.055664,4.231018 11.876434,18.7453 11.876434,18.7453 C11.876434,18.7453 18.466095,18.7453 18.466095,18.7453 C18.466095,18.7453 27.582214,8.7178955 27.582214,8.7178955 C28.073029,8.921631 28.612122,9.073181 29.175232,9.073181 C29.74762,9.073181 30.27655,8.921631 30.777496,8.7178955 C30.777496,8.7178955 39.88333,18.7453 39.88333,18.7453 C39.88333,18.7453 46.483276,18.7453 46.483276,18.7453 C46.483276,18.7453 33.29474,4.231018 33.29474,4.231018 C33.29474,4.231018 33.189087,4.231018 33.189087,4.231018 C32.82904,2.3725586 31.186829,1.0126953 29.175232,1.0126953 C29.175232,1.0126953 29.175232,1.0126953 29.175232,1.0126953 ZM5.287842,21.965637 C3.460205,21.965637 1.987915,23.406311 1.987915,25.194092 C1.987915,25.194092 1.987915,26.805725 1.987915,26.805725 C1.987915,28.506958 3.3224487,29.845093 5.030426,29.97998 C5.030426,29.97998 10.226959,47.760742 10.226959,47.760742 C11.876434,50.98712 13.526978,50.98712 15.166077,50.98712 C15.166077,50.98712 44.832764,50.98712 44.832764,50.98712 C46.483276,50.98712 48.122467,50.98712 49.77295,47.760742 C49.77295,47.760742 54.97986,29.97998 54.97986,29.97998 C56.676453,29.845093 58.011993,28.506958 58.011993,26.805725 C58.011993,26.805725 58.011993,25.194092 58.011993,25.194092 C58.011993,23.406311 56.54767,21.965637 54.72235,21.965637 C54.72235,21.965637 5.287842,21.965637 5.287842,21.965637 C5.287842,21.965637 5.287842,21.965637 5.287842,21.965637 ZM14.556885,30.026123 C14.556885,30.026123 15.376404,30.026123 15.376404,30.026123 C17.203796,30.026123 19.006165,31.372253 19.391296,33.048767 C19.391296,33.048767 21.708588,43.078247 21.708588,43.078247 C22.095764,44.762634 20.913086,46.147034 19.085693,46.147034 C19.085693,46.147034 18.255737,46.147034 18.255737,46.147034 C16.431396,46.147034 14.62912,44.762634 14.241943,43.078247 C14.241943,43.078247 11.924652,33.048767 11.924652,33.048767 C11.539429,31.372253 12.729187,30.026123 14.556885,30.026123 C14.556885,30.026123 14.556885,30.026123 14.556885,30.026123 ZM30.005096,30.026123 C31.830505,30.026123 33.29474,31.466675 33.29474,33.254578 C33.29474,33.254578 33.29474,42.926636 33.29474,42.926636 C33.29474,44.71454 31.830505,46.147034 30.005096,46.147034 C28.17749,46.147034 26.70514,44.71454 26.70514,42.926636 C26.70514,42.926636 26.70514,33.254578 26.70514,33.254578 C26.70514,31.466675 28.17749,30.026123 30.005096,30.026123 C30.005096,30.026123 30.005096,30.026123 30.005096,30.026123 ZM44.623474,30.026123 C44.623474,30.026123 45.4534,30.026123 45.4534,30.026123 C47.278748,30.026123 48.46045,31.372253 48.075256,33.048767 C48.075256,33.048767 45.758057,43.078247 45.758057,43.078247 C45.37079,44.762634 43.570557,46.147034 41.743164,46.147034 C41.743164,46.147034 40.913208,46.147034 40.913208,46.147034 C39.088867,46.147034 37.90619,44.762634 38.29138,43.078247 C38.29138,43.078247 40.60858,33.048767 40.60858,33.048767 C40.99585,31.372253 42.79608,30.026123 44.623474,30.026123 C44.623474,30.026123 44.623474,30.026123 44.623474,30.026123 Z"/>
</svg>