<svg xmlns="http://www.w3.org/2000/svg"
 xmlns:xlink="http://www.w3.org/1999/xlink"
 width="54px" height="52px"  viewBox="0 0 54 52">
<path fill-rule="evenodd"  fill="#5eb6c4"
 d="M18.338928,1.0111694 C16.738647,1.0111694 15.448486,2.3244019 15.448486,3.953308 C15.448486,3.953308 15.448486,8.359802 15.448486,8.359802 C15.448486,8.359802 3.901001,8.359802 3.901001,8.359802 C2.3007202,8.359802 1.010498,9.672913 1.010498,11.301941 C1.010498,11.301941 1.010498,27.472168 1.010498,27.472168 C1.010498,27.472168 52.988525,27.472168 52.988525,27.472168 C52.988525,27.472168 52.988525,11.301941 52.988525,11.301941 C52.988525,9.672913 51.698486,8.359802 50.098022,8.359802 C50.098022,8.359802 38.550537,8.359802 38.550537,8.359802 C38.550537,8.359802 38.550537,3.953308 38.550537,3.953308 C38.550537,2.3244019 37.26062,1.0111694 35.660095,1.0111694 C35.660095,1.0111694 18.338928,1.0111694 18.338928,1.0111694 C18.338928,1.0111694 18.338928,1.0111694 18.338928,1.0111694 ZM21.222168,3.953308 C21.222168,3.953308 32.776855,3.953308 32.776855,3.953308 C33.573486,3.953308 34.222107,4.6065674 34.222107,5.4263306 C34.222107,5.4263306 34.222107,8.359802 34.222107,8.359802 C34.222107,8.359802 19.78418,8.359802 19.78418,8.359802 C19.78418,8.359802 19.78418,5.4263306 19.78418,5.4263306 C19.78418,4.6065674 20.425537,3.953308 21.222168,3.953308 C21.222168,3.953308 21.222168,3.953308 21.222168,3.953308 ZM2.4557495,30.405518 C2.4557495,30.405518 2.4557495,49.517883 2.4557495,49.517883 C2.4557495,50.326904 3.09729,50.98712 3.901001,50.98712 C3.901001,50.98712 50.098022,50.98712 50.098022,50.98712 C50.901855,50.98712 51.543274,50.326904 51.543274,49.517883 C51.543274,49.517883 51.543274,30.405518 51.543274,30.405518 C51.543274,30.405518 29.886414,30.405518 29.886414,30.405518 C29.886414,30.405518 29.886414,34.82068 29.886414,34.82068 C29.886414,35.6297 29.244995,36.2901 28.441162,36.2901 C28.441162,36.2901 25.557861,36.2901 25.557861,36.2901 C24.754272,36.2901 24.11261,35.6297 24.11261,34.82068 C24.11261,34.82068 24.11261,30.405518 24.11261,30.405518 C24.11261,30.405518 2.4557495,30.405518 2.4557495,30.405518 C2.4557495,30.405518 2.4557495,30.405518 2.4557495,30.405518 Z"/>
</svg>