<svg xmlns="http://www.w3.org/2000/svg"
 xmlns:xlink="http://www.w3.org/1999/xlink"
 width="57px" height="57px"  viewBox="0 0 57 57">
<path fill-rule="evenodd"  fill="#5eb6c4"
 d="M28.503967,1.0115967 C13.327393,1.0115967 1.0116577,13.327454 1.0116577,28.50293 C1.0116577,43.672485 13.327393,55.988342 28.503967,55.988342 C43.672485,55.988342 55.98828,43.672485 55.98828,28.50293 C55.98828,13.327454 43.672485,1.0115967 28.503967,1.0115967 C28.503967,1.0115967 28.503967,1.0115967 28.503967,1.0115967 ZM28.503967,3.809082 C38.26294,3.809082 46.69702,9.500122 50.70349,17.723633 C50.70349,17.723633 50.70349,17.777283 50.70349,17.777283 C50.726868,18.06659 50.757996,18.361755 50.750183,18.67566 C50.95288,18.839294 51.202393,19.118835 51.451782,19.424011 C52.01294,20.84253 52.40265,22.331299 52.698975,23.858093 C52.465088,24.077454 52.1532,24.2323 51.646606,24.262512 C49.09778,22.253357 51.592102,26.469421 52.995056,25.705566 C53.096436,26.617432 53.197876,27.561707 53.197876,28.50293 C53.197876,34.615112 50.937378,40.157104 47.25818,44.466614 C47.25818,44.311646 47.29706,44.11786 47.359497,43.812744 C49.0744,41.73169 48.75476,37.624817 45.262695,38.075745 C43.44641,39.50226 40.92871,41.333984 38.7229,39.228577 C36.42334,37.156067 37.491333,33.727234 38.777405,31.39679 C40.063477,29.525024 40.48456,26.756897 42.76831,25.806885 C45.020996,26.322327 47.780273,26.166382 48.60663,23.414917 C49.308105,22.181335 48.910583,21.76831 48.25586,21.465149 C48.18567,21.441772 48.14673,21.441772 48.10785,21.419373 C47.359497,21.105469 46.408447,20.85614 46.307068,19.772766 C46.97754,18.619934 45.558777,16.259216 45.013184,18.370544 C46.17462,19.68695 46.439575,23.639954 43.664673,22.167786 C44.654602,23.75 40.087036,22.735657 40.967773,24.957153 C41.692566,27.373718 36.84442,28.738647 38.224,25.65979 C39.00354,23.390564 37.86548,19.98413 39.876465,18.525635 C39.85315,18.45642 40.055664,18.152405 39.970093,18.471924 C40.04016,18.42627 40.09485,18.361755 40.17267,18.323853 C41.92639,17.114624 37.943237,13.483276 38.177185,15.728149 C39.89203,16.624573 38.948853,18.434021 37.280823,17.52887 C35.526978,16.663696 34.887817,11.855164 37.327515,12.190369 C39.167114,12.432007 37.41333,10.490112 36.579224,9.5460205 C36.49359,9.983398 36.361084,9.460144 36.431152,9.398804 C36.392212,9.352051 36.31421,9.282837 36.27527,9.242859 C36.509155,6.351074 31.691895,8.883362 30.88916,6.3043213 C27.856812,4.8007812 24.388306,4.71521 21.013184,4.956848 C22.307068,4.543579 23.632202,4.301941 25.00415,4.106201 C25.136597,4.090576 25.269104,4.0750732 25.401611,4.0594482 C25.775757,4.0203247 26.157715,3.9726562 26.500732,3.911255 C27.155396,3.8568115 27.825684,3.809082 28.496155,3.809082 C28.496155,3.809082 28.503967,3.809082 28.503967,3.809082 ZM18.175781,7.099304 C21.621033,8.245117 16.42981,11.893066 19.025513,13.335205 C19.290466,13.327454 19.500793,13.3974 19.719116,13.483276 C19.789368,13.413147 19.812683,13.451172 19.820496,13.536865 C20.981812,14.075684 21.231323,15.735901 19.321594,15.626831 C16.6792,14.878418 15.634644,20.521057 18.222534,19.820496 C19.173584,17.162537 22.041992,18.284973 22.564209,20.615479 C24.107544,23.01538 20.950684,22.993835 19.867188,24.013184 C20.958496,25.979248 17.949768,24.94165 16.827332,25.909302 C14.675964,26.383728 14.013306,29.650696 12.134766,29.750061 C12.056946,26.330078 6.3588867,27.483643 7.2943726,30.592712 C8.510193,31.543884 10.131531,32.526 9.889832,34.536987 C9.796448,38.777405 15.010986,37.38318 17.32611,39.62805 C20.171265,40.875183 21.995178,43.439575 24.505249,45.1156 C26.679932,44.37506 30.701965,46.44055 28.55066,49.05078 C27.264526,50.001953 25.767944,50.836 24.208923,51.397095 C24.208923,51.397095 24.208923,51.450745 24.208923,51.450745 C23.26587,51.785828 22.252563,52.021667 21.262573,52.09973 C19.34497,51.507263 17.521118,50.673218 15.829529,49.651123 C15.821777,49.635498 15.837341,49.618896 15.829529,49.605347 C15.057922,47.360474 12.9921875,45.972046 11.589233,44.163574 C10.848694,43.422974 10.747314,42.58911 10.786438,41.72284 C10.802002,41.71692 10.77063,41.67694 10.786438,41.66919 C10.879822,40.235046 11.386475,38.738403 10.342041,37.428833 C8.712891,34.708435 6.662964,32.21515 5.602783,29.19757 C5.48584,26.080688 5.314453,23.087463 6.351074,20.116577 C8.658447,15.377319 14.411011,10.318726 18.175781,7.099304 C18.175781,7.099304 18.175781,7.099304 18.175781,7.099304 ZM25.510803,10.943237 C25.604187,10.935486 25.689941,10.965637 25.806885,10.988892 C26.407104,10.988892 26.204346,11.659424 25.806885,11.838562 C24.388306,13.171509 24.037476,11.222778 25.206665,10.988892 C25.29242,10.973389 25.409424,10.943237 25.510803,10.943237 C25.510803,10.943237 25.510803,10.943237 25.510803,10.943237 ZM27.451538,11.386414 C28.472595,11.262695 29.501648,11.675049 29.797852,12.883057 C30.515015,15.743774 27.662048,17.592163 26.601868,19.922913 C23.975098,19.18805 26.750122,16.28949 25.604187,14.878418 C24.029663,13.24939 25.744629,11.605774 27.451538,11.386414 C27.451538,11.386414 27.451538,11.386414 27.451538,11.386414 ZM22.31482,14.231506 C23.975098,14.130188 23.655518,17.801575 22.268127,18.370544 C21.052124,17.256836 22.650085,15.617981 21.96405,14.332947 C22.096497,14.294006 22.205688,14.23938 22.31482,14.231506 C22.31482,14.231506 22.31482,14.231506 22.31482,14.231506 ZM36.63391,20.116577 C37.179443,20.086426 38.395447,20.64679 38.278503,21.419373 C37.756348,22.299255 36.28302,22.22113 36.828613,20.920532 C36.23633,20.366089 36.306396,20.140198 36.63391,20.116577 C36.63391,20.116577 36.63391,20.116577 36.63391,20.116577 ZM22.268127,23.913757 C22.91504,23.795837 24.310303,24.286865 23.016418,25.058594 C23.429504,24.621948 22.712341,24.785767 22.610962,24.809082 C21.777039,24.2323 21.870422,23.983765 22.268127,23.913757 C22.268127,23.913757 22.268127,23.913757 22.268127,23.913757 ZM17.03003,25.954895 C17.209229,25.979248 16.96753,26.21991 16.725952,26.15863 C16.725952,26.15863 16.6792,26.15863 16.6792,26.15863 C16.64032,26.14209 16.608948,26.08844 16.57782,26.056213 C16.811768,25.962646 16.951965,25.947144 17.03003,25.954895 C17.03003,25.954895 17.03003,25.954895 17.03003,25.954895 ZM11.940002,32.89331 C12.049194,32.861206 12.173828,32.87683 12.337524,32.89331 C12.470032,32.906982 12.649414,32.946777 12.789673,32.992676 C12.789673,33.01703 12.781921,33.001526 12.789673,33.040405 C13.327393,33.228394 13.826294,33.649414 13.584656,34.33423 C13.171631,34.49817 12.734985,34.201782 12.485596,33.891052 C11.589233,33.336487 11.604736,32.986755 11.940002,32.89331 C11.940002,32.89331 11.940002,32.89331 11.940002,32.89331 Z"/>
</svg>